<svg version="1.1" id="Layer_1" xmlns="http://www.w3.org/2000/svg" xmlns:xlink="http://www.w3.org/1999/xlink" x="0px" y="0px"
	 width="100%" viewBox="0 0 800 291" enable-background="new 0 0 800 291" xml:space="preserve">
<path fill="#F50057" opacity="1.000000" stroke="none" 
	d="
M496.000000,292.000000 
	C332.204071,292.000000 168.908157,291.987854 5.612286,292.080475 
	C2.073393,292.082458 0.882526,291.616608 0.888633,287.614105 
	C1.032294,193.469238 1.031024,99.324059 0.887520,5.179183 
	C0.881729,1.380082 1.903859,0.918144 5.319069,0.919284 
	C269.091949,1.007336 532.864868,1.006113 796.637756,0.930271 
	C799.930298,0.929325 801.127869,1.213177 801.121399,5.135994 
	C800.965515,99.447472 800.973022,193.759277 801.103943,288.070831 
	C801.108948,291.637299 800.202454,292.088318 796.930786,292.084930 
	C696.787231,291.980896 596.643616,292.000000 496.000000,292.000000 
z"/>
<path fill="#FFFDFE" opacity="1.000000" stroke="none" 
	d="
M255.644699,161.000229 
	C255.644684,190.983963 255.649277,220.467682 255.642166,249.951401 
	C255.639740,259.986572 252.823975,262.865082 242.979797,262.865997 
	C174.850739,262.872314 106.721695,262.872131 38.592640,262.866760 
	C28.895372,262.865997 26.001053,260.007965 26.000320,250.436737 
	C25.995089,182.141113 25.995049,113.845482 26.000370,45.549858 
	C26.001116,35.990520 28.900850,33.133972 38.606045,33.133224 
	C106.735092,33.127968 174.864151,33.127636 242.993195,33.134041 
	C252.822235,33.134968 255.640610,36.022305 255.642227,46.063164 
	C255.648376,84.208847 255.644714,122.354530 255.644699,161.000229 
z"/>
<path fill="#FFF3F7" opacity="1.000000" stroke="none" 
	d="
M372.250000,104.663933 
	C386.536346,113.586426 392.381409,128.448898 388.938049,146.497467 
	C386.119415,161.271469 374.216858,172.463181 358.653290,175.100098 
	C347.900574,176.921921 337.065857,175.855408 326.272705,176.224274 
	C322.542328,176.351761 323.478455,173.755432 323.474091,171.809921 
	C323.432404,153.332108 323.455933,134.854187 323.439056,116.376289 
	C323.437225,114.383263 323.378754,112.383469 323.208496,110.398651 
	C322.585358,103.134323 321.990021,102.485275 314.896881,101.027184 
	C314.145416,100.872704 313.080902,101.166016 313.107574,99.920609 
	C313.133087,98.730736 314.135742,98.814575 314.926849,98.837570 
	C330.039917,99.276718 345.230896,97.512779 360.256073,100.269836 
	C364.337769,101.018814 368.229431,102.546730 372.250000,104.663933 
z"/>
<path fill="#FFF6F9" opacity="1.000000" stroke="none" 
	d="
M589.260010,118.585526 
	C584.963074,130.828918 584.912048,142.885880 588.560974,154.767715 
	C593.812378,171.867630 614.315186,179.531662 630.218872,170.810730 
	C632.207153,169.720490 632.493652,168.257217 632.476196,166.321396 
	C632.424988,160.660141 632.373047,154.996399 632.482422,149.336746 
	C632.659607,140.169434 641.604370,133.477615 650.458374,135.748489 
	C651.182251,135.934143 651.734558,136.153427 651.745850,136.923599 
	C651.758484,137.784805 651.058777,137.936417 650.384949,137.980347 
	C643.997803,138.396866 643.232483,143.085327 643.091187,147.935181 
	C642.897278,154.590576 643.027466,161.255356 643.016663,167.916122 
	C643.013977,169.561386 643.160339,171.041321 641.210999,172.097534 
	C625.087524,180.833847 597.021667,183.410583 582.022095,161.790726 
	C571.994263,147.337006 571.812378,124.131706 582.375305,110.187622 
	C593.917786,94.950409 620.567322,91.450714 636.010681,103.043129 
	C641.768799,107.365349 641.600586,113.576973 641.829651,119.729294 
	C641.855103,120.413620 641.659424,121.091499 640.870056,121.261299 
	C639.921936,121.465218 639.287781,121.040970 639.020264,120.103218 
	C638.929016,119.783554 638.877075,119.452644 638.784912,119.133308 
	C635.479980,107.684441 627.935974,101.669899 615.971558,101.113350 
	C603.745117,100.544609 595.337463,106.115356 590.021484,116.857330 
	C589.800049,117.304871 589.600525,117.763283 589.260010,118.585526 
z"/>
<path fill="#FFF8FA" opacity="1.000000" stroke="none" 
	d="
M673.001953,98.818634 
	C681.455566,99.117371 689.472778,98.019379 697.354370,99.934509 
	C709.636353,102.918869 715.714539,110.831039 715.244507,123.260101 
	C714.818054,134.537292 707.626465,142.140945 695.527344,143.931061 
	C692.744141,144.342865 689.901245,144.484375 687.083862,144.507050 
	C676.853882,144.589401 676.853760,144.550446 676.853577,155.011597 
	C676.853516,160.833344 676.622375,166.666870 676.919128,172.473419 
	C677.199463,177.956757 673.314026,175.863464 670.815918,176.142532 
	C668.148438,176.440521 665.826416,176.722839 665.878784,172.389008 
	C666.122009,152.265335 666.029541,132.136948 665.964355,112.010536 
	C665.937622,103.745033 664.632080,102.328743 656.673157,100.897919 
	C656.285950,100.828308 655.965759,100.386345 655.631531,98.818642 
	C661.255188,98.818642 666.878906,98.818642 673.001953,98.818634 
z"/>
<path fill="#FFF7FA" opacity="1.000000" stroke="none" 
	d="
M773.749695,166.513885 
	C767.124329,177.750977 756.753113,178.797195 745.689819,177.771088 
	C742.741516,177.497635 739.785034,176.673492 736.970947,175.700989 
	C725.292969,171.665176 721.668213,163.683533 725.841614,151.119690 
	C727.646545,152.303665 727.549744,154.232468 727.971497,155.866074 
	C731.404419,169.162537 741.684326,175.677216 755.136169,172.887939 
	C759.935608,171.892731 763.937317,169.516342 765.370911,164.462158 
	C766.768433,159.534958 765.210327,155.318451 761.588745,151.757080 
	C757.255249,147.495682 751.869568,144.806458 746.793823,141.644974 
	C742.138123,138.745102 737.294678,136.080475 732.942139,132.774750 
	C725.574829,127.179398 723.153870,119.066551 725.716370,110.571609 
	C728.068665,102.773376 735.021667,97.582314 744.097961,96.845810 
	C751.368530,96.255836 758.401611,97.185463 764.965576,100.482834 
	C771.992554,104.012817 775.966187,114.950668 772.919067,122.047729 
	C772.754700,122.430656 772.339294,122.940948 772.003052,122.971062 
	C770.973999,123.063225 770.643311,122.189964 770.400269,121.403275 
	C769.666382,119.027916 769.160217,116.566414 768.246094,114.265244 
	C764.318665,104.378265 754.208862,99.253014 743.913391,101.843361 
	C739.049866,103.067024 735.414673,105.769051 734.297241,110.871460 
	C733.234375,115.724709 735.016663,119.652840 738.830383,122.782967 
	C743.876465,126.924545 749.639160,129.934967 755.161804,133.327057 
	C758.703857,135.502655 762.334717,137.552292 765.748962,139.913986 
	C776.161194,147.116302 778.313477,154.200409 773.749695,166.513885 
z"/>
<path fill="#FFF7FA" opacity="1.000000" stroke="none" 
	d="
M432.897644,139.386139 
	C432.574860,137.310715 432.373505,135.656326 431.984100,134.047424 
	C430.592926,128.299484 427.513672,125.395477 422.297424,124.802704 
	C415.793060,124.063545 411.130096,126.213203 408.891022,131.704819 
	C407.812836,134.349167 406.267822,134.970306 403.962585,134.419006 
	C401.341339,133.792130 402.857269,131.659302 402.872681,130.251862 
	C402.923279,125.633926 405.639862,122.972870 409.838562,121.632195 
	C415.974579,119.672913 422.298462,119.322556 428.578613,120.327957 
	C436.904877,121.660927 441.908356,127.408836 443.034821,136.422806 
	C444.567169,148.684631 443.608612,161.011703 443.836182,173.308136 
	C443.856567,174.411057 444.131470,175.958405 442.505585,176.053360 
	C440.456482,176.173050 437.908966,177.097992 436.616608,174.684753 
	C434.582886,170.887100 432.807617,171.268814 429.547638,173.701370 
	C423.874146,177.934937 417.130188,178.219711 410.496216,176.210587 
	C403.370667,174.052582 399.909332,168.904175 399.797058,161.222183 
	C399.696564,154.345978 402.716370,150.223907 409.872498,147.490433 
	C415.867004,145.200638 422.181610,144.523346 428.481812,144.605637 
	C432.339539,144.656021 433.646271,143.479187 432.897644,139.386139 
z"/>
<path fill="#FFF6F9" opacity="1.000000" stroke="none" 
	d="
M539.903809,149.040955 
	C541.545166,153.023178 543.061584,156.641937 545.085815,161.472488 
	C548.961609,150.901260 552.413940,141.502609 555.850830,132.098328 
	C556.705322,129.760239 557.705688,127.451630 558.292114,125.044960 
	C559.184082,121.384254 561.247253,120.141098 564.946777,121.308678 
	C565.612122,122.570053 564.726807,123.687012 564.304810,124.846878 
	C557.317200,144.053497 550.321655,163.257263 543.319580,182.458618 
	C542.008789,186.052963 540.511597,189.547287 538.428040,192.794556 
	C534.845520,198.378204 529.304504,199.584671 523.290405,199.823792 
	C522.233276,199.865799 521.316711,199.598770 521.179688,198.265350 
	C521.037231,196.878540 521.447815,196.034119 522.986145,195.931717 
	C533.562195,195.227798 535.811646,186.773849 538.765320,178.965500 
	C539.359070,177.395782 538.748840,176.087585 538.167236,174.673859 
	C532.349854,160.533493 526.614197,146.359406 520.775391,132.227905 
	C518.850159,127.568199 515.799133,123.998344 510.552246,122.877548 
	C509.450226,122.642159 507.912109,122.513603 508.006714,121.026268 
	C508.114929,119.324387 509.736053,119.902542 510.785431,119.831764 
	C524.427673,118.911667 528.471252,121.405678 533.685913,133.931107 
	C535.730042,138.841095 537.748657,143.761719 539.903809,149.040955 
z"/>
<path fill="#FFF9FB" opacity="1.000000" stroke="none" 
	d="
M500.011414,149.000000 
	C500.011292,157.153702 499.923706,164.808960 500.059418,172.460251 
	C500.105713,175.070450 499.628082,176.249054 496.600006,176.265961 
	C489.149048,176.307587 489.149658,176.481842 489.149567,168.898163 
	C489.149384,151.427750 489.149536,133.957336 489.149475,116.486931 
	C489.149475,115.488625 489.155701,114.490265 489.148193,113.492012 
	C489.073151,103.487938 488.376526,102.577454 478.785217,100.273224 
	C480.518433,97.801765 482.970123,98.892197 484.947906,98.876038 
	C498.368835,98.766365 499.732605,100.020638 499.960144,113.560013 
	C500.155853,125.203674 500.007599,136.853119 500.011414,149.000000 
z"/>
<path fill="#FFFCFD" opacity="1.000000" stroke="none" 
	d="
M467.641022,121.995239 
	C471.204346,123.932663 471.934662,127.055740 471.968567,130.261429 
	C472.119995,144.580933 472.082855,158.902344 472.189514,173.222504 
	C472.226624,178.207855 468.520905,175.772186 466.433044,176.070648 
	C464.411377,176.359634 461.700623,177.171814 461.764893,173.116470 
	C461.947021,161.628311 461.846771,150.135284 461.809357,138.644333 
	C461.801788,136.319427 461.634796,133.990982 461.448853,131.671585 
	C461.059143,126.810440 459.111389,123.381027 453.595123,123.217377 
	C452.725494,123.191574 451.471527,123.409767 451.306854,121.162308 
	C456.663391,121.070190 461.955841,120.336693 467.641022,121.995239 
z"/>
<path fill="#FFF2F7" opacity="1.000000" stroke="none" 
	d="
M467.791687,102.001312 
	C468.730988,102.744255 469.492218,103.207741 469.917358,103.882881 
	C471.730499,106.761955 472.509033,109.875443 469.876862,112.559921 
	C467.908875,114.567039 465.308624,114.438255 463.001801,112.823563 
	C459.869019,110.630653 458.869904,107.399391 460.263458,104.044945 
	C461.554871,100.936249 464.434326,100.568687 467.791687,102.001312 
z"/>
<path fill="#F50459" opacity="1.000000" stroke="none" 
	d="
M129.962646,108.033844 
	C143.299118,122.664108 138.235306,141.957870 119.530151,149.067703 
	C113.540604,151.344345 113.519142,151.357391 116.931252,156.962128 
	C122.206078,165.626556 127.445335,174.313858 132.832733,182.908066 
	C136.105423,188.128769 140.448441,192.109055 146.684845,193.583389 
	C147.735657,193.831833 149.050674,193.858383 149.010315,195.582886 
	C148.967987,197.392517 147.755875,197.705750 146.390472,197.971069 
	C136.091995,199.972137 127.685654,196.875870 121.237511,188.590149 
	C113.645279,178.834259 107.650772,168.034195 101.935196,157.171310 
	C98.995018,151.583282 94.965355,151.660187 90.126129,151.832504 
	C86.901688,151.947327 88.063042,154.335831 88.052406,155.851120 
	C87.965897,168.175201 87.873543,180.502411 88.086777,192.823395 
	C88.146843,196.293732 87.254662,197.332932 83.707458,197.264221 
	C74.831520,197.092300 74.827873,197.279861 74.827873,188.379028 
	C74.827850,165.894806 74.846588,143.410568 74.804192,120.926422 
	C74.798866,118.105721 74.602486,115.269913 74.267761,112.468216 
	C73.298676,104.356865 71.903206,103.011353 63.817242,102.005287 
	C62.736115,101.870773 61.339390,102.302666 61.227535,100.511459 
	C61.132416,98.988304 62.289433,98.990479 63.247189,99.027092 
	C81.005249,99.705963 98.895576,97.153351 116.515305,101.074631 
	C121.439255,102.170464 125.948463,104.284073 129.962646,108.033844 
z"/>
<path fill="#F5085C" opacity="1.000000" stroke="none" 
	d="
M159.845886,172.897949 
	C164.854156,190.817383 179.504272,195.437149 193.658768,192.961594 
	C199.714279,191.902496 204.887268,188.940933 206.678192,182.716110 
	C208.505203,176.365936 206.809189,170.638489 201.805969,165.927628 
	C195.047470,159.564072 186.692062,155.701035 178.953369,150.871902 
	C174.299530,147.967789 169.466583,145.351318 165.167801,141.894684 
	C156.599625,135.005035 153.924347,125.934074 156.184509,115.560677 
	C158.394302,105.418404 165.497406,99.614365 175.325745,97.450943 
	C186.601944,94.968826 197.482224,96.662079 207.700150,102.120956 
	C213.645187,105.297050 216.797791,110.154564 216.549332,117.066528 
	C216.423798,120.558983 216.548462,124.059845 216.503494,127.556175 
	C216.491608,128.480789 216.775864,129.704742 215.353912,129.924698 
	C213.814743,130.162766 213.336700,129.108917 213.122879,127.853828 
	C212.363647,123.397781 211.014435,119.135323 208.836533,115.165932 
	C202.932495,104.405334 187.595886,99.175613 176.353989,104.063164 
	C166.003296,108.563248 163.800812,120.858597 172.076172,128.608582 
	C178.452637,134.580231 186.376099,138.285782 193.717941,142.828751 
	C199.228821,146.238770 204.849457,149.443405 210.136292,153.234848 
	C218.720428,159.390976 221.542358,167.743866 219.733231,177.728531 
	C217.877914,187.968002 211.580795,194.955627 201.718964,197.767120 
	C188.553223,201.520538 175.705109,199.824173 163.637177,193.156784 
	C158.053741,190.071976 155.105698,185.482666 155.440659,178.921539 
	C155.610245,175.599762 155.429077,172.261414 155.498001,168.932434 
	C155.520065,167.867523 154.995636,166.307312 156.578293,166.002274 
	C158.518723,165.628265 158.467392,167.464554 158.835617,168.633774 
	C159.233459,169.897095 159.440430,171.220505 159.845886,172.897949 
z"/>
<path fill="#F50158" opacity="1.000000" stroke="none" 
	d="
M334.547943,136.999710 
	C334.548157,127.335526 334.641968,118.169884 334.496704,109.008018 
	C334.447479,105.904053 335.121490,104.381645 338.602631,103.643669 
	C356.072723,99.940163 371.708160,109.468475 375.812683,126.845757 
	C377.641327,134.587585 377.526001,142.353836 375.197296,150.037781 
	C370.116852,166.801682 353.949982,175.621643 337.020142,171.069977 
	C334.052002,170.271988 334.581238,168.360184 334.571777,166.491684 
	C334.522949,156.827911 334.548401,147.163742 334.547943,136.999710 
z"/>
<path fill="#F50258" opacity="1.000000" stroke="none" 
	d="
M677.134644,104.533569 
	C693.337585,99.247948 706.127136,110.104370 703.122925,126.007423 
	C701.611633,134.007172 694.608704,139.855087 686.186035,140.150803 
	C676.849243,140.478607 676.838562,140.478592 676.852234,131.359802 
	C676.865479,122.555580 676.903809,113.751381 677.134644,104.533569 
z"/>
<path fill="#F5055A" opacity="1.000000" stroke="none" 
	d="
M425.571960,149.286499 
	C432.994110,149.116562 433.120667,149.119629 432.946869,156.304153 
	C432.843079,160.593979 434.279053,165.171951 429.984772,168.738113 
	C426.106384,171.958908 422.107147,172.803329 417.536072,171.105270 
	C413.205505,169.496552 410.991577,166.318573 410.854248,161.618027 
	C410.701050,156.373413 413.576538,153.232178 417.983215,151.321350 
	C420.232605,150.345963 422.748810,149.985901 425.571960,149.286499 
z"/>
<path fill="#FFFCFD" opacity="1.000000" stroke="none" 
	d="
M121.569458,119.938110 
	C123.302414,136.190582 114.633484,146.012787 98.626198,146.500595 
	C88.000420,146.824402 88.000389,146.824417 88.000420,136.461838 
	C88.000450,127.480385 88.162704,118.494476 87.915886,109.519814 
	C87.825089,106.218277 89.054588,105.320312 92.070549,104.869118 
	C106.202820,102.754898 116.900261,108.007149 121.569458,119.938110 
z"/>
</svg>